<svg t="1743153358424" class="icon" viewBox="0 0 1024 1024" version="1.1" xmlns="http://www.w3.org/2000/svg" p-id="71782" width="200" height="200"><path d="M894.976 205.312l-76.288-76.288c-30.208-30.208-79.36-30.208-109.568 0l-119.296 119.296-96.256-95.232C463.36 122.88 414.72 122.88 384 153.088L261.632 274.944v0.512l-133.12 132.608c-30.208 30.208-30.208 79.36 0 109.568l71.68 71.68 0.512 0.512 0.512 0.512 115.712 115.712 0.512 0.512 0.512 0.512 115.712 115.712s0 0.512 0.512 0.512c0 0 0.512 0 0.512 0.512l71.68 71.68c30.208 30.208 79.36 30.208 109.568 0l254.976-254.976c30.208-30.208 30.208-79.36 0-109.568L775.168 435.2l119.808-119.296c30.72-30.72 30.72-79.872 0-110.592z m-320 627.712c-9.216 9.216-24.576 9.216-33.792 0L491.52 783.36l42.496-42.496c9.216-9.216 9.216-24.576 0-33.792-9.216-9.216-24.576-9.216-33.792 0l-42.496 42.496-74.24-74.24L459.776 599.04c9.216-9.216 9.216-24.576 0-33.792-9.216-9.216-24.576-9.216-33.792 0l-76.288 76.288-74.24-74.24 42.496-41.984c9.216-9.216 9.216-24.576 0-33.792-9.216-9.216-24.576-9.216-33.792 0l-42.496 42.496-49.664-49.664c-9.216-9.216-9.728-24.576 0-33.792L296.96 343.552l384 383.488-105.984 105.984z m266.752-550.4l-110.592 110.592-11.776 11.776-22.528 22.528h0.512l122.368 122.368c9.216 9.216 9.216 24.576 0 33.792l-96.768 96.256L339.456 296.96l96.256-96.256c9.216-9.216 24.576-9.728 33.792-0.512l122.88 122.368v0.512l26.112-26.112 7.68-7.68L737.28 178.176c9.216-9.216 24.576-9.216 33.792 0l71.168 70.656c9.216 9.728 9.216 24.576-0.512 33.792z m0 0" fill="#888" p-id="71783"></path></svg>