<svg t="1743151496652" viewBox="0 0 1029 1024" version="1.1" xmlns="http://www.w3.org/2000/svg" p-id="7936" width="32" height="32"><path d="M968.96 387.2l-302.4-302.4c-17.76-17.76-41.28-27.36-65.76-27.36s-48 9.6-65.28 26.88l-476.16 476.16c-17.76 17.76-27.36 41.28-27.36 65.76s9.6 48 26.88 65.28l0.96 1.92h0.96l205.44 205.44c43.2 43.2 100.8 67.2 161.76 67.2 60.96 0 118.56-23.52 161.76-67.2l379.68-379.68c17.76-17.76 27.36-41.28 27.36-66.24-0.48-24.48-10.08-48-27.84-65.76z m-432.96 469.92c-29.76 26.88-68.16 41.76-108.48 41.76-43.2 0-83.52-16.8-114.24-47.04l-206.88-206.88c-10.08-10.08-10.08-26.88 0-36.96l90.24-90.24 339.36 339.36z m385.44-385.44l-337.92 337.92-339.36-339.36 337.92-337.92c4.8-4.8 11.52-7.68 18.24-7.68 7.2 0 13.44 2.88 18.24 7.68l302.4 302.4c10.56 10.08 10.56 26.88 0.48 36.96z" fill="#888" p-id="7937"></path></svg>