<svg t="1743152778333" class="icon" viewBox="0 0 1024 1024" version="1.1" xmlns="http://www.w3.org/2000/svg" p-id="54622" width="200" height="200"><path d="M875.52 128.08192a185.71264 185.71264 0 0 0-262.7584 0.16384L142.86848 599.08096a40.96 40.96 0 0 0-11.96032 28.71296l-1.2288 204.8a40.96 40.96 0 0 0 40.96 41.20576h204.8a40.96 40.96 0 0 0 28.99968-12.00128l471.08096-471.04a185.71264 185.71264 0 0 0 0-262.67648z m-204.8 57.99936a103.79264 103.79264 0 1 1 146.88256 146.71872L358.52288 791.87968h-146.6368l0.8192-146.80064L670.76096 186.08128z m-131.39968 605.7984a40.96 40.96 0 0 0 0 81.92h368.64a40.96 40.96 0 1 0 0-81.92h-368.64z" p-id="54623" fill="#888"></path></svg>